HIERARCHY
ROOT hip
{
  OFFSET 0 90.174 2.4664
  CHANNELS 6 Xposition Yposition Zposition Zrotation Xrotation Yrotation
  JOINT abdomen
  {
    OFFSET 0 -1.186 -1.5018
    CHANNELS 6 Xposition Yposition Zposition Zrotation Xrotation Yrotation
    JOINT abdomen2
    {
      OFFSET 0 9.964 0.2134
      CHANNELS 6 Xposition Yposition Zposition Zrotation Xrotation Yrotation
      JOINT chest
      {
        OFFSET 0 13.134 -3.2573
        CHANNELS 6 Xposition Yposition Zposition Zrotation Xrotation Yrotation
        JOINT neck
        {
          OFFSET 0 20.686 -1.6905
          CHANNELS 6 Xposition Yposition Zposition Zrotation Xrotation Yrotation
          JOINT head
          {
            OFFSET 0 7.238 -0.1237
            CHANNELS 6 Xposition Yposition Zposition Zrotation Xrotation Yrotation
            End Site
            {
              OFFSET 0 0 0
            }
          }
        }
        JOINT lCollar
        {
          OFFSET 1.7069 20.075 5.0056
          CHANNELS 6 Xposition Yposition Zposition Zrotation Xrotation Yrotation
          JOINT lShldr
          {
            OFFSET 13.6458 -0.047 -4.849
            CHANNELS 6 Xposition Yposition Zposition Zrotation Xrotation Yrotation
            JOINT lForeArm
            {
              OFFSET 28.3255 -0.9759 2.2888
              CHANNELS 6 Xposition Yposition Zposition Zrotation Xrotation Yrotation
              JOINT lHand
              {
                OFFSET 22.1583 -0.53 10.8316
                CHANNELS 6 Xposition Yposition Zposition Zrotation Xrotation Yrotation
                JOINT lThumb1
                {
                  OFFSET 0.786 0.112 2.5817
                  CHANNELS 6 Xposition Yposition Zposition Zrotation Xrotation Yrotation
                  JOINT lThumb2
                  {
                    OFFSET 0.3601 -0.878 4.2331
                    CHANNELS 6 Xposition Yposition Zposition Zrotation Xrotation Yrotation
                    JOINT lThumb2_End
                    {
                      OFFSET 1.8127 -1.216 2.2227
                      CHANNELS 6 Xposition Yposition Zposition Zrotation Xrotation Yrotation
                      End Site
                      {
                        OFFSET 0.0181 -0.0122 0.0222
                      }
                    }
                  }
                }
                JOINT lCarpal1
                {
                  OFFSET 0.9571 1.114 1.7695
                  CHANNELS 6 Xposition Yposition Zposition Zrotation Xrotation Yrotation
                  JOINT lIndex1
                  {
                    OFFSET 4.1246 0.487 4.1451
                    CHANNELS 6 Xposition Yposition Zposition Zrotation Xrotation Yrotation
                    JOINT lIndex2
                    {
                      OFFSET 3.4052 -1.454 2.7682
                      CHANNELS 6 Xposition Yposition Zposition Zrotation Xrotation Yrotation
                      JOINT lIndex2_End
                      {
                        OFFSET 1.4531 -1.795 1.2713
                        CHANNELS 6 Xposition Yposition Zposition Zrotation Xrotation Yrotation
                        End Site
                        {
                          OFFSET 0.0145 -0.0179 0.0127
                        }
                      }
                    }
                  }
                  JOINT lMid1
                  {
                    OFFSET 5.6954 0.21 2.1184
                    CHANNELS 6 Xposition Yposition Zposition Zrotation Xrotation Yrotation
                    JOINT lMid2
                    {
                      OFFSET 3.9766 -1.54 2.3863
                      CHANNELS 6 Xposition Yposition Zposition Zrotation Xrotation Yrotation
                      JOINT lMid2_End
                      {
                        OFFSET 1.4042 -1.926 1.125
                        CHANNELS 6 Xposition Yposition Zposition Zrotation Xrotation Yrotation
                        End Site
                        {
                          OFFSET 0.014 -0.0193 0.0113
                        }
                      }
                    }
                  }
                }
                JOINT lCarpal2
                {
                  OFFSET 2.0956 0.66 -0.3894
                  CHANNELS 6 Xposition Yposition Zposition Zrotation Xrotation Yrotation
                  JOINT lRing1
                  {
                    OFFSET 5.0395 -0.09 2.4971
                    CHANNELS 6 Xposition Yposition Zposition Zrotation Xrotation Yrotation
                    JOINT lRing2
                    {
                      OFFSET 3.7921 -1.552 1.4806
                      CHANNELS 6 Xposition Yposition Zposition Zrotation Xrotation Yrotation
                      JOINT lRing2_End
                      {
                        OFFSET 1.4655 -1.808 0.9609
                        CHANNELS 6 Xposition Yposition Zposition Zrotation Xrotation Yrotation
                        End Site
                        {
                          OFFSET 0.0147 -0.0181 0.0096
                        }
                      }
                    }
                  }
                  JOINT lPinky1
                  {
                    OFFSET 4.9141 -1.269 0.3591
                    CHANNELS 6 Xposition Yposition Zposition Zrotation Xrotation Yrotation
                    JOINT lPinky2
                    {
                      OFFSET 3.1477 -1.685 0.8462
                      CHANNELS 6 Xposition Yposition Zposition Zrotation Xrotation Yrotation
                      JOINT lPinky2_End
                      {
                        OFFSET 0.8055 -1.585 0.7955
                        CHANNELS 6 Xposition Yposition Zposition Zrotation Xrotation Yrotation
                        End Site
                        {
                          OFFSET 0.0081 -0.0158 0.008
                        }
                      }
                    }
                  }
                }
              }
            }
          }
        }
        JOINT rCollar
        {
          OFFSET -1.7069 20.075 5.0056
          CHANNELS 6 Xposition Yposition Zposition Zrotation Xrotation Yrotation
          JOINT rShldr
          {
            OFFSET -13.6458 -0.047 -4.849
            CHANNELS 6 Xposition Yposition Zposition Zrotation Xrotation Yrotation
            JOINT rForeArm
            {
              OFFSET -28.3255 -0.9759 2.2888
              CHANNELS 6 Xposition Yposition Zposition Zrotation Xrotation Yrotation
              JOINT rHand
              {
                OFFSET -22.1583 -0.53 10.8316
                CHANNELS 6 Xposition Yposition Zposition Zrotation Xrotation Yrotation
                JOINT rThumb1
                {
                  OFFSET -0.786 0.112 2.5817
                  CHANNELS 6 Xposition Yposition Zposition Zrotation Xrotation Yrotation
                  JOINT rThumb2
                  {
                    OFFSET -0.3601 -0.878 4.2331
                    CHANNELS 6 Xposition Yposition Zposition Zrotation Xrotation Yrotation
                    JOINT rThumb2_End
                    {
                      OFFSET -1.8127 -1.216 2.2227
                      CHANNELS 6 Xposition Yposition Zposition Zrotation Xrotation Yrotation
                      End Site
                      {
                        OFFSET -0.0181 -0.0122 0.0222
                      }
                    }
                  }
                }
                JOINT rCarpal1
                {
                  OFFSET -0.9571 1.114 1.7695
                  CHANNELS 6 Xposition Yposition Zposition Zrotation Xrotation Yrotation
                  JOINT rIndex1
                  {
                    OFFSET -4.1246 0.487 4.1451
                    CHANNELS 6 Xposition Yposition Zposition Zrotation Xrotation Yrotation
                    JOINT rIndex2
                    {
                      OFFSET -3.4052 -1.454 2.7682
                      CHANNELS 6 Xposition Yposition Zposition Zrotation Xrotation Yrotation
                      JOINT rIndex2_End
                      {
                        OFFSET -1.4531 -1.795 1.2713
                        CHANNELS 6 Xposition Yposition Zposition Zrotation Xrotation Yrotation
                        End Site
                        {
                          OFFSET -0.0145 -0.018 0.0127
                        }
                      }
                    }
                  }
                  JOINT rMid1
                  {
                    OFFSET -5.6954 0.21 2.1184
                    CHANNELS 6 Xposition Yposition Zposition Zrotation Xrotation Yrotation
                    JOINT rMid2
                    {
                      OFFSET -3.9766 -1.54 2.3863
                      CHANNELS 6 Xposition Yposition Zposition Zrotation Xrotation Yrotation
                      JOINT rMid2_End
                      {
                        OFFSET -1.4042 -1.926 1.125
                        CHANNELS 6 Xposition Yposition Zposition Zrotation Xrotation Yrotation
                        End Site
                        {
                          OFFSET -0.014 -0.0193 0.0113
                        }
                      }
                    }
                  }
                }
                JOINT rCarpal2
                {
                  OFFSET -2.0956 0.66 -0.3894
                  CHANNELS 6 Xposition Yposition Zposition Zrotation Xrotation Yrotation
                  JOINT rRing1
                  {
                    OFFSET -5.0395 -0.09 2.4971
                    CHANNELS 6 Xposition Yposition Zposition Zrotation Xrotation Yrotation
                    JOINT rRing2
                    {
                      OFFSET -3.7921 -1.552 1.4806
                      CHANNELS 6 Xposition Yposition Zposition Zrotation Xrotation Yrotation
                      JOINT rRing2_End
                      {
                        OFFSET -1.4655 -1.808 0.9609
                        CHANNELS 6 Xposition Yposition Zposition Zrotation Xrotation Yrotation
                        End Site
                        {
                          OFFSET -0.0147 -0.0181 0.0096
                        }
                      }
                    }
                  }
                  JOINT rPinky1
                  {
                    OFFSET -4.9141 -1.269 0.3592
                    CHANNELS 6 Xposition Yposition Zposition Zrotation Xrotation Yrotation
                    JOINT rPinky2
                    {
                      OFFSET -3.1477 -1.685 0.8462
                      CHANNELS 6 Xposition Yposition Zposition Zrotation Xrotation Yrotation
                      JOINT rPinky2_End
                      {
                        OFFSET -0.8055 -1.585 0.7955
                        CHANNELS 6 Xposition Yposition Zposition Zrotation Xrotation Yrotation
                        End Site
                        {
                          OFFSET -0.0081 -0.0158 0.008
                        }
                      }
                    }
                  }
                }
              }
            }
          }
        }
      }
    }
  }
  JOINT lThigh
  {
    OFFSET 8.367 -8.2066 0.5982
    CHANNELS 6 Xposition Yposition Zposition Zrotation Xrotation Yrotation
    JOINT lShin
    {
      OFFSET 2.1923 -43.463 -0.4932
      CHANNELS 6 Xposition Yposition Zposition Zrotation Xrotation Yrotation
      JOINT lFoot
      {
        OFFSET 0.7333 -45.8593 -2.6451
        CHANNELS 6 Xposition Yposition Zposition Zrotation Xrotation Yrotation
        End Site
        {
          OFFSET 2.6618 -4.2699 12.3931
        }
      }
    }
  }
  JOINT rThigh
  {
    OFFSET -8.367 -8.2066 0.5982
    CHANNELS 6 Xposition Yposition Zposition Zrotation Xrotation Yrotation
    JOINT rShin
    {
      OFFSET -2.1923 -43.463 -0.4931
      CHANNELS 6 Xposition Yposition Zposition Zrotation Xrotation Yrotation
      JOINT rFoot
      {
        OFFSET -0.7333 -45.8593 -2.6451
        CHANNELS 6 Xposition Yposition Zposition Zrotation Xrotation Yrotation
        End Site
        {
          OFFSET -2.6618 -4.2699 12.3931
        }
      }
    }
  }
}
MOTION
Frames:	4
Frame Time:	0.0333333
-1.41348 85.8619 7.23032 -0 -4.86679 -0 0 -1.186 -1.5018 -0.258659 2.78213 -0.133509 0 9.964 0.2134 -0.511727 5.56483 -0.254878 -4.44089e-016 13.134 -3.2573 -0.511727 5.56483 -0.254878 0 20.686 -1.6905 1.94612e-005 -5.85208 4.24202e-006 8.88178e-016 7.238 -0.1237 1.15573e-007 -0.267538 6.12397e-008 1.7069 20.075 5.0056 -13.245 14.0009 -5.19906 13.6458 -0.047 -4.849 -50.6537 34.3333 -29.7155 28.3255 -0.9759 2.2888 -14.4875 -21.6737 -13.1735 22.1583 -0.53 10.8316 -6.5122 2.57104 0.0273059 0.786 0.112 2.5817 1.2921e-015 -3.18055e-015 1.59028e-015 0.3601 -0.878 4.2331 -2.17617e-006 -2.63595e-006 -1.44499e-006 1.8127 -1.216 2.2227 -7.52432e-006 -5.3814e-007 9.06972e-007 0.9571 1.114 1.7695 1.2921e-015 -3.18055e-015 -0 4.1246 0.487 4.1451 1.2921e-015 3.18055e-015 5.1684e-015 3.4052 -1.454 2.7682 -2.17617e-006 -2.63595e-006 -1.44499e-006 1.4531 -1.795 1.2713 -7.52432e-006 -5.3814e-007 9.06972e-007 5.6954 0.21 2.1184 1.2921e-015 3.18055e-015 5.1684e-015 3.9766 -1.54 2.3863 -2.17617e-006 -2.63595e-006 -1.44499e-006 1.4042 -1.926 1.125 -7.52432e-006 -5.3814e-007 9.06972e-007 2.0956 0.66 -0.3894 1.2921e-015 -3.18055e-015 -0 5.0395 -0.09 2.4971 1.2921e-015 3.18055e-015 5.1684e-015 3.7921 -1.552 1.4806 -2.17617e-006 -2.63595e-006 -1.44499e-006 1.4655 -1.808 0.9609 -7.52432e-006 -5.3814e-007 9.06972e-007 4.9141 -1.269 0.3591 1.2921e-015 3.18055e-015 5.1684e-015 3.1477 -1.685 0.8462 -2.17617e-006 -2.63595e-006 -1.44499e-006 0.8055 -1.585 0.7955 -7.52432e-006 -5.3814e-007 9.06972e-007 -1.7069 20.075 5.0056 12.9884 13.9363 5.1912 -13.6458 -0.047 -4.849 50.9098 34.4983 30.3469 -28.3255 -0.9759 2.2888 12.3571 -22.3474 11.4799 -22.1583 -0.53 10.8316 6.49223 2.60876 0.0253999 -0.786 0.112 2.5817 -1.39149e-015 6.36111e-015 -7.95139e-016 -0.3601 -0.878 4.2331 3.4921e-006 -4.46954e-007 -1.08923e-006 -1.8127 -1.216 2.2227 1.32137e-006 1.07592e-006 -5.53616e-007 -0.9571 1.114 1.7695 -2.20695e-032 3.18055e-015 3.97569e-016 -4.1246 0.487 4.1451 -4.77083e-015 0 7.15625e-015 -3.4052 -1.454 2.7682 3.4921e-006 -4.46954e-007 -1.08923e-006 -1.4531 -1.795 1.2713 1.32137e-006 1.07592e-006 -5.53616e-007 -5.6954 0.21 2.1184 -4.77083e-015 0 7.15625e-015 -3.9766 -1.54 2.3863 3.4921e-006 -4.46954e-007 -1.08923e-006 -1.4042 -1.926 1.125 1.32137e-006 1.07592e-006 -5.53616e-007 -2.0956 0.66 -0.3894 -2.20695e-032 3.18055e-015 3.97569e-016 -5.0395 -0.09 2.4971 -4.77083e-015 0 7.15625e-015 -3.7921 -1.552 1.4806 3.4921e-006 -4.46954e-007 -1.08923e-006 -1.4655 -1.808 0.9609 1.32137e-006 1.07592e-006 -5.53616e-007 -4.9141 -1.269 0.3592 -4.77083e-015 0 7.15625e-015 -3.1477 -1.685 0.8462 3.4921e-006 -4.46954e-007 -1.08923e-006 -0.8055 -1.585 0.7955 1.32137e-006 1.07592e-006 -5.53616e-007 8.367 -8.2066 0.5982 13.1604 -8.36353 15.4208 2.1923 -43.463 -0.4932 3.89793 24.7024 -2.79227 0.7333 -45.8593 -2.6451 -10.9943 -18.2605 2.11191 -8.367 -8.2066 0.5982 0.313531 -0.0327953 -12.0656 -2.1923 -43.463 -0.4931 3.32999 23.4184 -1.93722 -0.7333 -45.8593 -2.6451 10.1501 -18.0062 -2.54692 
-1.41338 85.8661 7.29514 -0 -5.00071 -0 0 -1.186 -1.5018 -0.258379 2.69725 -0.133412 -2.22045e-016 9.964 0.2134 -0.51131 5.39511 -0.255054 0 13.134 -3.2573 -0.51131 5.3951 -0.255054 0 20.686 -1.6905 4.53763e-005 -6.00209 8.63063e-006 -4.44089e-016 7.238 -0.1237 2.66764e-007 -0.267537 1.26381e-007 1.7069 20.075 5.0056 -13.3866 14.3931 -5.21024 13.6458 -0.047 -4.849 -50.57 34.2829 -29.655 28.3255 -0.9759 2.2888 -14.4278 -21.7103 -13.1092 22.1583 -0.53 10.8316 -6.51219 2.57104 0.0273042 0.786 0.112 2.5817 -1.93749e-006 -1.82095e-007 1.4206e-006 0.3601 -0.878 4.2331 -4.905e-007 -2.66366e-006 1.94017e-006 1.8127 -1.216 2.2227 -3.77691e-015 -6.36111e-015 -1.98785e-015 0.9571 1.114 1.7695 2.08724e-015 6.36111e-015 -5.96354e-016 4.1246 0.487 4.1451 -1.93749e-006 -1.82095e-007 1.4206e-006 3.4052 -1.454 2.7682 -4.905e-007 -2.66366e-006 1.94017e-006 1.4531 -1.795 1.2713 -3.8763e-015 -3.18055e-015 -1.78906e-015 5.6954 0.21 2.1184 -1.93749e-006 -1.82095e-007 1.4206e-006 3.9766 -1.54 2.3863 -4.905e-007 -2.66366e-006 1.94017e-006 1.4042 -1.926 1.125 -3.8763e-015 -3.18055e-015 -1.78906e-015 2.0956 0.66 -0.3894 2.08724e-015 6.36111e-015 -5.96354e-016 5.0395 -0.09 2.4971 -1.93749e-006 -1.82095e-007 1.4206e-006 3.7921 -1.552 1.4806 -4.905e-007 -2.66366e-006 1.94017e-006 1.4655 -1.808 0.9609 -3.8763e-015 -3.18055e-015 -1.78906e-015 4.9141 -1.269 0.3591 -1.93749e-006 -1.82095e-007 1.4206e-006 3.1477 -1.685 0.8462 -4.905e-007 -2.66366e-006 1.94017e-006 0.8055 -1.585 0.7955 -3.8763e-015 -3.18055e-015 -1.78906e-015 -1.7069 20.075 5.0056 13.1229 14.3267 5.20322 -13.6458 -0.047 -4.849 50.8272 34.4493 30.2874 -28.3255 -0.9759 2.2888 12.2961 -22.3819 11.4152 -22.1583 -0.53 10.8316 6.4922 2.60875 0.025394 -0.786 0.112 2.5817 3.57521e-007 1.02641e-006 -1.29553e-006 -0.3601 -0.878 4.2331 -1.21259e-014 3.18055e-015 -7.95139e-015 -1.8127 -1.216 2.2227 -1.15295e-014 9.54166e-015 -7.15625e-015 -0.9571 1.114 1.7695 1.59028e-015 3.18055e-015 -3.97569e-016 -4.1246 0.487 4.1451 3.57521e-007 1.02641e-006 -1.29553e-006 -3.4052 -1.454 2.7682 -1.21259e-014 3.18055e-015 -6.75868e-015 -1.4531 -1.795 1.2713 -1.15295e-014 9.54166e-015 -7.15625e-015 -5.6954 0.21 2.1184 3.57521e-007 1.02641e-006 -1.29553e-006 -3.9766 -1.54 2.3863 -1.21259e-014 3.18055e-015 -6.75868e-015 -1.4042 -1.926 1.125 -1.15295e-014 9.54166e-015 -7.15625e-015 -2.0956 0.66 -0.3894 1.59028e-015 3.18055e-015 -3.97569e-016 -5.0395 -0.09 2.4971 3.57521e-007 1.02641e-006 -1.29553e-006 -3.7921 -1.552 1.4806 -1.21259e-014 3.18055e-015 -6.75868e-015 -1.4655 -1.808 0.9609 -1.15295e-014 9.54166e-015 -7.15625e-015 -4.9141 -1.269 0.3592 3.57521e-007 1.02641e-006 -1.29553e-006 -3.1477 -1.685 0.8462 -1.21259e-014 3.18055e-015 -6.75868e-015 -0.8055 -1.585 0.7955 -1.15295e-014 9.54166e-015 -7.15625e-015 8.367 -8.2066 0.5982 13.1622 -8.17637 15.4195 2.1923 -43.463 -0.4932 3.89812 24.7044 -2.79235 0.7333 -45.8593 -2.6451 -10.9947 -18.2611 2.11181 -8.367 -8.2066 0.5982 0.315546 0.17892 -12.0586 -2.1923 -43.463 -0.4931 3.33032 23.4252 -1.93787 -0.7333 -45.8593 -2.6451 10.1498 -18.0073 -2.54682 
-1.41348 85.8619 7.23032 -0 -4.86679 -0 0 -1.186 -1.5018 -0.258659 2.78213 -0.133509 -2.22045e-016 9.964 0.2134 -0.511727 5.56483 -0.254878 -4.44089e-016 13.134 -3.2573 -0.511727 5.56483 -0.254878 0 20.686 -1.6905 3.03368e-005 -5.85209 5.62076e-006 0 7.238 -0.1237 2.24626e-007 -0.267537 -6.8589e-008 1.7069 20.075 5.0056 -13.245 14.0009 -5.19906 13.6458 -0.047 -4.849 -50.6537 34.3333 -29.7155 28.3255 -0.9759 2.2888 -14.4875 -21.6737 -13.1735 22.1583 -0.53 10.8316 -6.51221 2.57104 0.0273061 0.786 0.112 2.5817 -3.73096e-007 9.6922e-007 1.33289e-006 0.3601 -0.878 4.2331 -3.18055e-015 0 -2.78299e-015 1.8127 -1.216 2.2227 5.96354e-016 0 -3.37934e-015 0.9571 1.114 1.7695 -3.97569e-016 1.27222e-014 2.18663e-015 4.1246 0.487 4.1451 -3.73096e-007 9.6922e-007 1.33289e-006 3.4052 -1.454 2.7682 -3.18055e-015 0 -1.19271e-015 1.4531 -1.795 1.2713 2.98177e-016 -3.18055e-015 -0 5.6954 0.21 2.1184 -3.73096e-007 9.6922e-007 1.33289e-006 3.9766 -1.54 2.3863 -3.18055e-015 0 -1.19271e-015 1.4042 -1.926 1.125 2.98177e-016 -3.18055e-015 -0 2.0956 0.66 -0.3894 -3.97569e-016 1.27222e-014 2.18663e-015 5.0395 -0.09 2.4971 -3.73096e-007 9.6922e-007 1.33289e-006 3.7921 -1.552 1.4806 -3.18055e-015 0 -1.19271e-015 1.4655 -1.808 0.9609 2.98177e-016 -3.18055e-015 -0 4.9141 -1.269 0.3591 -3.73096e-007 9.6922e-007 1.33289e-006 3.1477 -1.685 0.8462 -3.18055e-015 0 -1.19271e-015 0.8055 -1.585 0.7955 2.98177e-016 -3.18055e-015 -0 -1.7069 20.075 5.0056 12.9884 13.9363 5.1912 -13.6458 -0.047 -4.849 50.9098 34.4982 30.3469 -28.3255 -0.9759 2.2888 12.357 -22.3474 11.4799 -22.1583 -0.53 10.8316 6.49222 2.60875 0.0253977 -0.786 0.112 2.5817 -2.18663e-015 0 3.97569e-016 -0.3601 -0.878 4.2331 1.67692e-006 2.10151e-006 -1.85016e-006 -1.8127 -1.216 2.2227 1.59028e-015 0 2.78299e-015 -0.9571 1.114 1.7695 -2.18663e-015 3.18055e-015 3.97569e-016 -4.1246 0.487 4.1451 -3.97569e-016 -6.36111e-015 5.56597e-015 -3.4052 -1.454 2.7682 1.67692e-006 2.10151e-006 -1.85016e-006 -1.4531 -1.795 1.2713 -7.95139e-016 3.18055e-015 2.38542e-015 -5.6954 0.21 2.1184 -3.97569e-016 -6.36111e-015 5.56597e-015 -3.9766 -1.54 2.3863 1.67692e-006 2.10151e-006 -1.85016e-006 -1.4042 -1.926 1.125 -7.95139e-016 3.18055e-015 2.38542e-015 -2.0956 0.66 -0.3894 -2.18663e-015 3.18055e-015 3.97569e-016 -5.0395 -0.09 2.4971 -3.97569e-016 -6.36111e-015 5.56597e-015 -3.7921 -1.552 1.4806 1.67692e-006 2.10151e-006 -1.85016e-006 -1.4655 -1.808 0.9609 -7.95139e-016 3.18055e-015 2.38542e-015 -4.9141 -1.269 0.3592 -3.97569e-016 -6.36111e-015 5.56597e-015 -3.1477 -1.685 0.8462 1.67692e-006 2.10151e-006 -1.85016e-006 -0.8055 -1.585 0.7955 -7.95139e-016 3.18055e-015 2.38542e-015 8.367 -8.2066 0.5982 13.1604 -8.36352 15.4208 2.1923 -43.463 -0.4932 3.89792 24.7024 -2.79227 0.7333 -45.8593 -2.6451 -10.9943 -18.2605 2.11191 -8.367 -8.2066 0.5982 0.313531 -0.0327953 -12.0656 -2.1923 -43.463 -0.4931 3.32999 23.4184 -1.93722 -0.7333 -45.8593 -2.6451 10.1501 -18.0062 -2.54692 
-1.41363 85.8547 7.12226 -0 -4.6436 -0 0 -1.186 -1.5018 -0.259138 2.92373 -0.133685 -2.22045e-016 9.964 0.2134 -0.512437 5.84803 -0.254607 0 13.134 -3.2573 -0.512438 5.84803 -0.254607 0 20.686 -1.6905 3.35359e-005 -5.60203 3.91273e-006 0 7.238 -0.1237 3.14072e-007 -0.267536 -7.40402e-008 1.7069 20.075 5.0056 -13.0089 13.3471 -5.17956 13.6458 -0.047 -4.849 -50.7929 34.4173 -29.8164 28.3255 -0.9759 2.2888 -14.587 -21.6127 -13.2807 22.1583 -0.53 10.8316 -6.5122 2.57104 0.0273043 0.786 0.112 2.5817 -3.69711e-007 9.67782e-007 1.33464e-006 0.3601 -0.878 4.2331 1.59028e-015 0 2.78299e-015 1.8127 -1.216 2.2227 4.47266e-015 3.18055e-015 3.97569e-016 0.9571 1.114 1.7695 -2.5842e-015 -3.18055e-015 -2.98177e-015 4.1246 0.487 4.1451 -3.69711e-007 9.67782e-007 1.33464e-006 3.4052 -1.454 2.7682 -5.86415e-015 -3.18055e-015 -1.59028e-015 1.4531 -1.795 1.2713 -2.98177e-015 -3.18055e-015 3.97569e-016 5.6954 0.21 2.1184 -3.69711e-007 9.67782e-007 1.33464e-006 3.9766 -1.54 2.3863 -5.86415e-015 -3.18055e-015 -1.59028e-015 1.4042 -1.926 1.125 -2.98177e-015 -3.18055e-015 3.97569e-016 2.0956 0.66 -0.3894 -2.5842e-015 -3.18055e-015 -2.98177e-015 5.0395 -0.09 2.4971 -3.69711e-007 9.67782e-007 1.33464e-006 3.7921 -1.552 1.4806 -5.86415e-015 -3.18055e-015 -1.59028e-015 1.4655 -1.808 0.9609 -2.98177e-015 -3.18055e-015 3.97569e-016 4.9141 -1.269 0.3591 -3.69711e-007 9.67782e-007 1.33464e-006 3.1477 -1.685 0.8462 -5.86415e-015 -3.18055e-015 -1.59028e-015 0.8055 -1.585 0.7955 -2.98177e-015 -3.18055e-015 3.97569e-016 -1.7069 20.075 5.0056 12.7642 13.2855 5.17034 -13.6458 -0.047 -4.849 51.0473 34.5798 30.4463 -28.3255 -0.9759 2.2888 12.4587 -22.2898 11.5878 -22.1583 -0.53 10.8316 6.49223 2.60876 0.0254053 -0.786 0.112 2.5817 3.52303e-007 1.02423e-006 -1.29821e-006 -0.3601 -0.878 4.2331 3.37934e-015 -6.36111e-015 1.98785e-016 -1.8127 -1.216 2.2227 2.98177e-015 -6.36111e-015 -1.39149e-015 -0.9571 1.114 1.7695 -2.5842e-015 0 -9.93923e-016 -4.1246 0.487 4.1451 3.52303e-007 1.02423e-006 -1.29821e-006 -3.4052 -1.454 2.7682 2.38542e-015 -1.27222e-014 -1.39149e-015 -1.4531 -1.795 1.2713 1.78906e-015 -9.54166e-015 -7.95139e-016 -5.6954 0.21 2.1184 3.52303e-007 1.02423e-006 -1.29821e-006 -3.9766 -1.54 2.3863 2.38542e-015 -1.27222e-014 -1.39149e-015 -1.4042 -1.926 1.125 1.78906e-015 -9.54166e-015 -7.95139e-016 -2.0956 0.66 -0.3894 -2.5842e-015 0 -9.93923e-016 -5.0395 -0.09 2.4971 3.52303e-007 1.02423e-006 -1.29821e-006 -3.7921 -1.552 1.4806 2.38542e-015 -1.27222e-014 -1.39149e-015 -1.4655 -1.808 0.9609 1.78906e-015 -9.54166e-015 -7.95139e-016 -4.9141 -1.269 0.3592 3.52303e-007 1.02423e-006 -1.29821e-006 -3.1477 -1.685 0.8462 2.38542e-015 -1.27222e-014 -1.39149e-015 -0.8055 -1.585 0.7955 1.78906e-015 -9.54166e-015 -7.95139e-016 8.367 -8.2066 0.5982 13.1574 -8.67581 15.423 2.1923 -43.463 -0.4932 3.89772 24.6995 -2.79213 0.7333 -45.8593 -2.6451 -10.9937 -18.2598 2.11207 -8.367 -8.2066 0.5982 0.310119 -0.390412 -12.0774 -2.1923 -43.463 -0.4931 3.32851 23.4116 -1.93664 -0.7333 -45.8593 -2.6451 10.1507 -18.0041 -2.54708 
